<?xml version="1.0" standalone="no"?>
<!DOCTYPE svg PUBLIC "-//W3C//DTD SVG 20010904//EN"
 "http://www.w3.org/TR/2001/REC-SVG-20010904/DTD/svg10.dtd">
<svg version="1.0" xmlns="http://www.w3.org/2000/svg"
 width="528.625896pt" height="660.715132pt" viewBox="0 0 528.625896 660.715132"
 preserveAspectRatio="xMidYMid meet">
<metadata>
Created by potrace 1.12, written by Peter Selinger 2001-2015
</metadata>
<g transform="translate(-265.374104,787.715132) scale(0.100000,-0.100000)"
fill="#000000" stroke="none">
<path d="M5219 7857 c-71 -30 -106 -57 -142 -109 -110 -163 -55 -374 120 -460
57 -28 77 -32 137 -32 126 1 228 70 283 191 22 48 25 65 21 137 -5 91 -28 144
-90 207 -81 80 -226 110 -329 66z"/>
<path d="M4827 6820 l-139 -5 -28 -32 c-16 -18 -32 -49 -36 -69 -14 -74 54
-154 130 -154 l26 0 2 -2002 c3 -1885 4 -2006 21 -2062 55 -184 207 -344 376
-397 121 -37 283 -24 396 33 98 50 197 152 253 263 57 114 54 5 58 1880 2 946
4 1847 4 2001 l0 281 40 7 c111 18 153 158 69 229 -31 25 -39 27 -129 27 -52
0 -277 1 -500 3 -223 1 -467 0 -543 -3z m831 -707 l-3 -468 -28 -57 c-121
-247 -460 -242 -583 8 l-29 59 -3 463 -3 462 326 0 326 0 -3 -467z m-604 -838
c51 -39 136 -73 210 -85 119 -19 261 16 352 85 18 14 35 25 38 25 4 0 5 -615
4 -1367 l-3 -1368 -28 -61 c-57 -123 -157 -189 -287 -189 -62 0 -86 5 -132 28
-68 33 -131 99 -166 175 l-27 57 -3 1363 c-1 749 0 1362 3 1362 4 0 21 -11 39
-25z"/>
<path d="M3604 6505 c-9 -13 -18 -42 -21 -64 -7 -49 -12 -54 -85 -75 -62 -18
-77 -39 -64 -91 7 -27 25 -37 91 -51 38 -8 41 -12 58 -64 39 -120 106 -118
141 4 15 52 19 56 54 62 85 15 121 59 88 108 -11 18 -31 28 -70 36 -58 12 -61
16 -80 102 -13 60 -81 80 -112 33z"/>
<path d="M6816 6487 c-14 -14 -26 -42 -30 -69 -7 -48 -19 -58 -91 -74 -42 -9
-65 -32 -65 -66 0 -39 29 -64 83 -72 53 -8 55 -10 82 -91 19 -56 22 -60 53
-63 45 -4 59 10 73 75 14 60 31 77 91 87 46 8 68 29 68 65 0 36 -24 57 -83 72
-52 13 -58 20 -77 96 -16 64 -62 82 -104 40z"/>
<path d="M4056 6158 c-8 -13 -20 -44 -27 -70 -11 -45 -14 -49 -53 -58 -72 -18
-91 -32 -94 -72 -4 -42 17 -61 79 -72 44 -8 64 -29 74 -76 11 -54 31 -80 64
-80 36 0 58 25 67 78 9 57 21 70 78 81 26 5 54 15 61 22 43 46 11 104 -65 117
-44 7 -46 9 -65 63 -11 31 -26 64 -34 73 -20 24 -68 20 -85 -6z"/>
<path d="M7443 5985 c-38 -16 -53 -42 -53 -88 0 -96 132 -131 175 -46 29 55 7
119 -46 138 -39 13 -37 13 -76 -4z"/>
<path d="M3119 5958 c-27 -9 -49 -44 -49 -79 0 -28 44 -69 75 -69 35 0 75 42
75 77 -1 53 -51 88 -101 71z"/>
<path d="M6403 5838 c-11 -13 -24 -33 -27 -45 -10 -32 18 -91 49 -103 39 -15
50 -13 84 16 25 21 31 33 31 65 0 77 -88 120 -137 67z"/>
<path d="M3120 5455 c-236 -53 -406 -239 -439 -478 -17 -121 2 -229 61 -339
106 -201 346 -323 567 -288 309 50 516 293 498 585 -11 180 -109 348 -261 447
-113 73 -290 104 -426 73z m233 -245 c168 -63 251 -265 173 -422 -33 -67 -98
-131 -164 -161 -65 -30 -179 -30 -244 0 -70 32 -131 94 -163 164 -54 121 -19
284 80 364 87 72 214 94 318 55z"/>
<path d="M6984 5426 c-68 -30 -96 -117 -56 -177 9 -14 85 -97 167 -183 83 -86
151 -162 153 -169 1 -7 -70 -90 -158 -185 -88 -95 -165 -182 -171 -193 -26
-50 -4 -140 43 -173 25 -18 90 -21 118 -6 10 6 44 40 76 78 31 37 100 113 153
170 l95 103 26 -28 c321 -354 299 -333 357 -333 38 0 50 5 78 33 41 41 54 96
33 141 -14 27 -83 105 -289 322 l-59 62 62 68 c34 38 107 115 162 171 54 56
107 115 117 130 54 82 -27 197 -124 179 -38 -7 -99 -65 -266 -253 -45 -51 -85
-94 -90 -97 -4 -3 -72 67 -151 156 -180 201 -202 216 -276 184z"/>
<path d="M6419 4941 c-25 -25 -30 -37 -25 -59 15 -60 79 -80 121 -37 43 42 23
106 -37 121 -22 5 -34 0 -59 -25z"/>
<path d="M4298 4930 c-27 -28 -30 -36 -25 -76 6 -61 38 -94 89 -94 50 0 74 13
93 50 38 74 -10 150 -95 150 -22 0 -41 -10 -62 -30z"/>
<path d="M4089 4212 c-47 -39 -16 -122 47 -122 33 0 64 34 64 70 0 60 -64 90
-111 52z"/>
<path d="M6424 4160 c-34 -14 -74 -69 -74 -102 0 -134 164 -176 225 -58 49 95
-51 201 -151 160z"/>
<path d="M3169 3961 c-25 -25 -30 -37 -25 -59 15 -60 79 -80 121 -37 43 42 23
106 -37 121 -22 5 -34 0 -59 -25z"/>
<path d="M7435 3968 c-37 -20 -55 -52 -55 -96 0 -37 6 -50 34 -78 39 -39 75
-44 122 -15 63 38 70 128 13 175 -33 28 -79 34 -114 14z"/>
<path d="M3975 3596 c-14 -14 -27 -42 -31 -66 -8 -52 -23 -66 -75 -75 -44 -8
-89 -43 -89 -69 0 -29 44 -67 90 -77 59 -13 68 -22 76 -76 16 -109 111 -110
129 -2 9 58 28 77 82 85 113 17 111 123 -2 140 -41 6 -49 11 -61 40 -8 18 -14
43 -14 54 0 25 -42 70 -65 70 -9 0 -27 -11 -40 -24z"/>
<path d="M6582 3583 c-12 -10 -27 -43 -34 -73 -13 -53 -14 -55 -58 -68 -79
-23 -95 -34 -98 -73 -4 -43 19 -67 79 -80 56 -13 67 -23 75 -68 10 -60 15 -71
38 -87 17 -10 30 -12 48 -5 26 10 39 35 58 107 10 42 24 54 63 54 38 0 87 37
87 66 0 52 -21 68 -111 88 -22 5 -29 15 -44 71 -22 84 -58 106 -103 68z"/>
<path d="M4278 2814 c-36 -19 -48 -43 -48 -99 0 -38 5 -52 29 -76 53 -52 142
-33 176 37 46 96 -61 191 -157 138z"/>
<path d="M6291 2742 c-28 -22 -31 -75 -6 -102 41 -45 115 -13 115 50 0 31 -8
44 -37 59 -30 15 -47 14 -72 -7z"/>
<path d="M3814 1896 c-3 -8 -4 -25 -2 -38 2 -19 9 -23 37 -23 66 0 68 67 2 73
-21 2 -33 -2 -37 -12z"/>
<path d="M7282 1898 c-28 -28 -3 -72 39 -66 30 4 47 33 33 56 -14 21 -55 27
-72 10z"/>
<path d="M2843 1883 c-61 -21 -136 -92 -164 -155 -35 -80 -34 -184 5 -261 66
-136 226 -199 374 -147 l57 20 28 -35 c23 -28 36 -35 64 -35 l35 0 -34 43
c-52 63 -52 64 -22 100 47 55 64 105 64 188 0 65 -4 85 -31 137 -34 69 -71
104 -144 138 -59 28 -165 31 -232 7z m218 -61 c132 -69 173 -223 94 -358 l-28
-48 -21 25 c-12 14 -37 44 -56 68 -30 36 -40 42 -67 39 l-31 -3 59 -74 c32
-40 59 -77 59 -82 0 -5 -25 -16 -55 -25 -116 -33 -230 20 -281 131 -54 116
-14 249 97 320 70 45 153 47 230 7z"/>
<path d="M4920 1610 l0 -290 25 0 25 0 0 290 0 290 -25 0 -25 0 0 -290z"/>
<path d="M5570 1610 l0 -290 30 0 30 0 0 133 c0 118 3 136 23 172 39 70 136
98 190 55 37 -29 47 -76 47 -227 l0 -133 25 0 25 0 0 143 c0 167 -9 205 -55
246 -63 55 -150 51 -220 -10 l-35 -31 0 116 0 116 -30 0 -30 0 0 -290z"/>
<path d="M7800 1820 l0 -80 -41 0 c-36 0 -40 -2 -37 -22 2 -19 10 -24 41 -26
l37 -3 0 -185 0 -184 25 0 25 0 0 185 0 185 45 0 c41 0 45 2 45 25 0 23 -4 25
-45 25 l-45 0 0 80 c0 79 0 80 -25 80 -25 0 -25 -1 -25 -80z"/>
<path d="M4445 1614 c-71 -152 -131 -281 -133 -285 -2 -5 9 -9 25 -9 26 0 33
8 73 90 l44 90 128 0 127 0 42 -90 c38 -83 44 -90 70 -90 16 0 29 2 29 5 0 2
-50 111 -111 242 -62 131 -120 257 -130 281 -10 23 -22 42 -26 42 -4 0 -66
-124 -138 -276z m226 -31 c8 -23 8 -23 -92 -23 l-100 0 16 30 c8 16 32 65 51
107 l36 78 40 -85 c22 -47 44 -95 49 -107z"/>
<path d="M5230 1741 c-107 -35 -170 -116 -170 -218 1 -87 54 -165 137 -200 57
-23 152 -17 213 15 66 33 83 57 56 78 -17 12 -22 12 -38 -6 -44 -47 -115 -66
-183 -49 -125 31 -175 181 -92 276 71 81 192 85 274 11 17 -16 25 -18 43 -8
l22 12 -24 25 c-51 55 -169 87 -238 64z"/>
<path d="M6166 1735 c-82 -29 -136 -112 -136 -211 0 -80 44 -157 109 -191 87
-45 215 -24 274 46 55 66 18 95 -42 34 -68 -71 -173 -78 -236 -15 -30 30 -55
80 -55 112 0 19 6 20 190 20 l190 0 0 28 c-1 42 -33 104 -73 139 -59 51 -143
66 -221 38z m147 -49 c39 -16 87 -70 87 -97 0 -18 -9 -19 -155 -19 -172 0
-173 1 -132 61 41 62 127 86 200 55z"/>
<path d="M6695 1738 c-16 -6 -45 -24 -62 -41 l-33 -31 0 37 c0 33 -3 37 -25
37 l-25 0 0 -210 0 -210 24 0 c23 0 23 1 28 133 5 149 20 196 72 228 34 21 87
25 117 9 40 -22 49 -61 49 -220 l0 -150 24 0 c23 0 23 1 28 133 4 98 10 143
23 170 34 73 127 100 182 53 l28 -24 3 -166 3 -166 25 0 25 0 -3 169 c-3 191
-9 209 -82 245 -58 29 -117 16 -170 -38 l-43 -42 -15 27 c-32 55 -109 81 -173
57z"/>
<path d="M7494 1740 c-35 -14 -64 -59 -64 -101 0 -48 33 -88 108 -132 65 -38
84 -71 62 -111 -20 -38 -60 -51 -102 -33 -20 8 -39 20 -43 27 -5 8 -12 7 -26
-6 -15 -13 -16 -20 -7 -31 53 -64 186 -54 223 17 36 69 11 129 -73 177 -68 38
-92 63 -92 93 0 56 66 78 120 40 26 -19 28 -19 44 -1 20 21 11 32 -47 56 -40
17 -71 18 -103 5z"/>
<path d="M3352 1583 c4 -176 11 -203 70 -245 28 -20 45 -23 115 -23 92 0 122
14 158 76 17 29 20 56 23 192 l4 157 -25 0 -25 0 -4 -152 c-2 -126 -6 -158
-21 -179 -54 -80 -185 -71 -227 15 -17 36 -20 62 -20 179 l0 137 -26 0 -26 0
4 -157z"/>
<path d="M3830 1530 l0 -210 25 0 25 0 0 210 0 210 -25 0 -25 0 0 -210z"/>
<path d="M3960 1715 c0 -24 1 -24 105 -27 l105 -3 -93 -145 c-51 -80 -103
-162 -116 -182 l-23 -38 161 0 c154 0 161 1 161 20 0 19 -7 20 -115 20 -63 0
-115 3 -115 6 0 3 52 86 115 185 63 99 115 182 115 184 0 3 -67 5 -150 5
l-150 0 0 -25z"/>
<path d="M7290 1530 l0 -210 25 0 25 0 0 210 0 210 -25 0 -25 0 0 -210z"/>
</g>
</svg>
